<svg id="Capa_1" enable-background="new 0 0 512 512" height="512" viewBox="0 0 512 512" width="512" xmlns="http://www.w3.org/2000/svg"><g><g><g><g><g><g><g><g><g><g><g><g><circle cx="256" cy="256" fill="#ffce00" r="256"/></g></g></g></g></g></g></g></g></g></g></g><path d="m338.727 133.196-35.366-35.366-4.651 43.369-43.369-43.369-12.654 35.366-35.366-35.366-11.183 36.837-36.837-36.837-12.654 35.366-35.367-35.366-9.434 9.434-30.99 274.102 123.029 123.029c19.888 4.958 40.691 7.605 62.115 7.605 140.576 0 254.669-113.312 255.969-253.581l-160.588-160.589z" fill="#ffa300"/><g><path d="m220.13 381.366h-149.274v-246.699h149.274l26.756 123.35z" fill="#fff"/><path d="m220.13 134.667h149.274v246.7h-149.274z" fill="#ebf3ff"/></g><g><g><path d="m220.13 235.844h-20.593v-41.187h20.593l10.297 20.593z" fill="#adcfff"/><path d="m220.13 194.657h20.593v41.187h-20.593z" fill="#8bbbff"/></g><path d="m88.88 194.657h41.187v41.187h-41.187z" fill="#adcfff"/><path d="m144.208 194.657h41.187v41.187h-41.187z" fill="#adcfff"/><g fill="#8bbbff"><path d="m254.865 194.657h41.187v41.187h-41.187z"/><path d="m310.194 194.657h41.187v41.187h-41.187z"/></g></g><g><g><path d="m220.13 295.7h-20.593v-41.187h20.593l10.297 20.593z" fill="#adcfff"/><path d="m220.13 254.513h20.593v41.187h-20.593z" fill="#8bbbff"/></g><path d="m88.88 254.513h41.187v41.187h-41.187z" fill="#adcfff"/><path d="m144.208 254.513h41.187v41.187h-41.187z" fill="#adcfff"/><g fill="#8bbbff"><path d="m254.865 254.513h41.187v41.187h-41.187z"/><path d="m310.194 254.513h41.187v41.187h-41.187z"/></g></g><g><g><path d="m220.13 355.555h-20.593v-41.186h20.593l10.297 20.593z" fill="#adcfff"/><path d="m220.13 314.369h20.593v41.187h-20.593z" fill="#8bbbff"/></g><path d="m88.88 314.369h41.187v41.187h-41.187z" fill="#adcfff"/><path d="m144.208 314.369h41.187v41.187h-41.187z" fill="#adcfff"/><g fill="#8bbbff"><path d="m254.865 314.369h41.187v41.187h-41.187z"/><path d="m310.194 314.369h41.187v41.187h-41.187z"/></g></g><g><g fill="#5f69e2"><path d="m88.88 97.83h22.401v67.825h-22.401z"/><path d="m184.92 97.83h22.401v67.825h-22.401z"/><path d="m136.9 97.83h22.401v67.825h-22.401z"/></g><path d="m232.94 97.83h22.401v67.825h-22.401z" fill="#515bdf"/><path d="m328.98 97.83h22.401v67.825h-22.401z" fill="#515bdf"/><path d="m280.96 97.83h22.401v67.825h-22.401z" fill="#515bdf"/></g><g><g><g><g><g><g><g><g><g><g><g><g><g><path d="m391.184 324.989-21.78 92.193c-50.917 0-92.193-41.276-92.193-92.193s41.276-92.193 92.193-92.193z" fill="#ff5f96"/></g></g></g></g></g></g></g></g></g></g><g><g><g><g><g><g><g><g><g><g><path d="m461.597 324.989c0 50.917-41.276 92.193-92.193 92.193v-184.385c50.917 0 92.193 41.276 92.193 92.192z" fill="#d72878"/></g></g></g></g></g></g></g></g></g></g></g></g><g><g><g><g><g><g><g><g><g><g><g><g><path d="m384.741 324.989-15.337 64.918c-35.853 0-64.918-29.065-64.918-64.918s29.065-64.918 64.918-64.918z" fill="#ebf3ff"/></g></g></g></g></g></g></g></g></g></g><g><g><g><g><g><g><g><g><g><g><g><path d="m434.322 324.989c0 35.853-29.065 64.918-64.918 64.918v-129.836c35.854 0 64.918 29.065 64.918 64.918z" fill="#d7e8ff"/></g></g></g></g></g></g></g></g></g></g></g></g></g><g><path d="m369.404 332.651h-5.839v-62.38h5.839l1.047 31.19z" fill="#525264"/><path d="m369.404 270.271h5.839v62.38h-5.839z" fill="#454553"/></g><path d="m403.592 291.826-37.722 28.68 3.534 4.648 3.534 4.648 37.723-28.679z" fill="#454553"/><g><g><g><g><g><g><g><g><g><g><g><path d="m373.027 324.989-3.623 15.337c-8.47 0-15.337-6.866-15.337-15.337s6.866-15.337 15.337-15.337z" fill="#606074"/></g></g></g></g></g></g></g></g></g><g><g><g><g><g><g><g><g><g><path d="m384.741 324.989c0 8.47-6.866 15.337-15.337 15.337v-30.673c8.47 0 15.337 6.866 15.337 15.336z" fill="#525264"/></g></g></g></g></g></g></g></g></g></g></g></g></g></svg>